<svg viewBox="0 0 216 43" xmlns="http://www.w3.org/2000/svg" data-logo="logo">
        <g transform="translate(0, 1) rotate(0)" id="logogram" style="opacity: 1;"><path fill="#283841" d="M59.9989 35.4453C59.9712 34.7784 59.5157 34.2093 58.8658 34.029C54.2617 32.7508 51.4902 30.9663 49.976 29.6942C49.457 29.258 48.9914 28.805 48.5924 28.3478L48.083 27.7644L48.5092 27.119L55.2935 16.8451C55.672 16.2719 55.6256 15.5353 55.1779 15.0129C54.8816 14.6669 54.4486 14.4686 53.9898 14.4686C53.7751 14.4686 53.5659 14.5119 53.3676 14.5975C49.6553 16.1997 45.1065 17.0469 40.2125 17.0471C39.3612 17.0471 38.4909 17.021 37.6264 16.9695L36.8132 16.9211L36.6682 16.1292C35.9027 11.9432 33.9431 8.75926 30.8439 6.66585C27.6828 4.53069 23.2493 3.44813 17.6666 3.44813C14.4632 3.44813 11.5364 4.19416 9.64548 4.81983L8.38766 5.236L8.28241 3.92961C8.11235 1.8157 6.29612 0.159973 4.14782 0.159973C1.86081 0.159973 0 1.99831 0 4.25768C0 5.63015 0.697351 6.90812 1.86548 7.67619L2.23515 7.91923L2.31215 8.35128L7.7463 38.796C7.87774 39.5317 8.52169 40.0657 9.27789 40.0657H11.3518C11.8127 40.0657 12.2469 39.8657 12.543 39.5169C12.8396 39.1678 12.9635 38.7107 12.8834 38.2622L11.4417 30.1846L11.3106 29.4499L11.9781 29.101C12.7784 28.6831 17.0449 26.5981 22.478 26.5981C23.2589 26.5981 24.0402 26.6419 24.8003 26.7282L25.5689 26.8155L25.7032 27.5682L26.9911 34.7838C27.2579 36.104 28.1937 36.9364 28.9821 37.2752C29.6755 37.5741 35.9017 40.16 43.6788 40.16C49.4528 40.16 54.4484 38.6167 58.9869 36.9489C59.6199 36.7161 60.0264 36.112 59.9987 35.4456L59.9989 35.4453Z"></path><path fill="white" d="M5.612 6.37105C6.29302 5.90955 6.73994 5.13508 6.73994 4.25766C6.73994 2.84318 5.57933 1.69659 4.14756 1.69659C2.71579 1.69659 1.55518 2.84318 1.55518 4.25766C1.55518 5.48928 2.43529 6.51806 3.60808 6.76315L9.27789 38.5288H11.3518L5.612 6.37105Z"></path><path fill="white" d="M8.33623 12.9216L7.3488 7.38941C7.3488 7.38941 12.0789 4.98431 17.666 4.98431C24.9249 4.98431 33.4474 6.6654 35.1672 16.5726C35.1681 16.5783 35.1691 16.584 35.1701 16.5897C30.7382 11.5084 23.778 10.6402 18.098 10.8066L18.0954 10.8067L18.0927 10.8067C15.082 10.9118 12.3831 11.5556 10.4428 12.1687C9.58342 12.4403 8.86857 12.7073 8.33623 12.9216Z"></path><path fill="white" d="M8.67022 14.7929L9.55833 19.7686C10.049 19.5625 10.7067 19.3052 11.5017 19.0385C13.3157 18.4299 15.8602 17.7668 18.7735 17.5573L18.7765 17.5571L18.7796 17.5569C24.2679 17.1975 31.1203 17.9844 36.311 23.0307C36.2195 22.5214 36.1267 22.0035 36.0332 21.4805C32.7346 13.8232 24.9941 12.4595 18.1563 12.6594C15.3679 12.757 12.8457 13.3556 11.0145 13.9343C10.1007 14.2231 9.36442 14.5052 8.85968 14.7136C8.79233 14.7414 8.72914 14.7679 8.67022 14.7929Z"></path><path fill="white" d="M36.9592 26.6243C32.1937 20.0857 24.9315 19.0124 18.9067 19.4063C16.195 19.6017 13.8123 20.221 12.1051 20.7938C11.2526 21.0797 10.5726 21.3528 10.109 21.5526C10.031 21.5863 9.95909 21.6178 9.89359 21.647L11.0054 27.8759C11.0054 27.8759 25.523 19.5839 37.8257 31.4673C37.6659 30.5333 37.3575 28.8275 36.9774 26.7247C36.9714 26.6913 36.9653 26.6578 36.9592 26.6243Z"></path><path fill="white" d="M29.6262 35.8761C29.6262 35.8761 35.8487 38.6231 43.679 38.6231C48.9556 38.6231 53.6079 37.2857 58.4447 35.5083C54.8511 34.5108 52.2615 33.2113 50.4204 31.9602C46.823 32.752 43.1833 32.9026 39.5519 32.4786C39.6303 32.9302 39.7082 33.3818 39.7855 33.8337L29.6262 35.8761Z"></path><path fill="white" d="M39.2286 30.6313C42.3474 31.0467 45.4635 31.016 48.5462 30.4975C46.8102 28.9308 46.2605 27.7114 46.2605 27.7114L48.2444 24.7071C44.2363 25.6479 40.8195 25.5547 38.2993 25.4285C38.6114 27.1623 38.9228 28.8963 39.2286 30.6313Z"></path><path fill="white" d="M37.9731 23.6164C40.9025 23.769 44.9374 23.9412 49.7422 22.4386L53.99 16.0056C48.7912 18.2493 42.6838 18.8673 37.0552 18.4726C37.3572 20.1879 37.6647 21.9023 37.9731 23.6164Z"></path></g>
        <g transform="translate(66, 13.5)" id="logotype" style="opacity: 1;"><path d="M15.54 16.42L15.54 16.42Q13.23 16.42 11.80 15.67Q10.38 14.92 9.64 13.84Q8.91 12.76 8.70 11.74L8.70 11.74L12.18 10.60Q12.42 11.53 13.20 12.27Q13.98 13 15.54 13L15.54 13Q16.95 13 17.48 12.56Q18 12.13 18 11.62L18 11.62Q18 11.02 17.37 10.57Q16.74 10.12 14.85 9.97L14.85 9.97Q12.36 9.76 10.86 8.65Q9.36 7.54 9.36 5.44L9.36 5.44L9.36 5.26Q9.36 3.79 10.17 2.77Q10.98 1.75 12.27 1.23Q13.56 0.70 15 0.70L15 0.70Q16.89 0.70 18.12 1.29Q19.35 1.87 20.05 2.74Q20.76 3.61 21.06 4.48L21.06 4.48L17.64 5.86Q17.37 5.05 16.71 4.59Q16.05 4.12 15 4.12L15 4.12Q14.07 4.12 13.57 4.46Q13.08 4.81 13.08 5.32L13.08 5.32Q13.08 6.04 13.83 6.34Q14.58 6.64 16.56 6.88L16.56 6.88Q18.84 7.12 20.28 8.25Q21.72 9.37 21.72 11.38L21.72 11.38L21.72 11.56Q21.72 13.75 20.10 15.09Q18.48 16.42 15.54 16.42ZM34.53 16.42L34.53 16.42Q33.06 16.42 31.86 15.78Q30.66 15.13 29.95 13.79Q29.25 12.46 29.25 10.42L29.25 10.42L29.25 1.12L33.03 1.12L33.03 9.64Q33.03 11.20 33.80 12.10Q34.56 13 36.03 13L36.03 13Q37.74 13 38.53 11.91Q39.33 10.81 39.33 8.92L39.33 8.92L39.33 1.12L43.11 1.12L43.11 16L39.33 16L39.33 13.84L38.79 13.84Q37.80 16.42 34.53 16.42ZM57.18 16.42L57.18 16.42Q54.99 16.42 53.22 15.54Q51.45 14.65 50.41 12.96Q49.38 11.26 49.38 8.86L49.38 8.86L49.38 8.50Q49.38 6.10 50.43 4.35Q51.48 2.59 53.25 1.65Q55.02 0.70 57.18 0.70L57.18 0.70Q60.30 0.70 62.25 2.32Q64.20 3.94 64.68 6.58L64.68 6.58L60.96 7.54Q60.78 6.22 59.82 5.26Q58.86 4.30 57.12 4.30L57.12 4.30Q55.50 4.30 54.33 5.44Q53.16 6.58 53.16 8.59L53.16 8.59L53.16 8.77Q53.16 10.78 54.33 11.80Q55.50 12.82 57.12 12.82L57.12 12.82Q58.86 12.82 59.77 11.95Q60.69 11.08 60.96 9.61L60.96 9.61L64.68 10.54Q64.20 13.18 62.28 14.80Q60.36 16.42 57.18 16.42ZM78.09 16.42L78.09 16.42Q75.90 16.42 74.13 15.54Q72.36 14.65 71.32 12.96Q70.29 11.26 70.29 8.86L70.29 8.86L70.29 8.50Q70.29 6.10 71.34 4.35Q72.39 2.59 74.16 1.65Q75.93 0.70 78.09 0.70L78.09 0.70Q81.21 0.70 83.16 2.32Q85.11 3.94 85.59 6.58L85.59 6.58L81.87 7.54Q81.69 6.22 80.73 5.26Q79.77 4.30 78.03 4.30L78.03 4.30Q76.41 4.30 75.24 5.44Q74.07 6.58 74.07 8.59L74.07 8.59L74.07 8.77Q74.07 10.78 75.24 11.80Q76.41 12.82 78.03 12.82L78.03 12.82Q79.77 12.82 80.68 11.95Q81.60 11.08 81.87 9.61L81.87 9.61L85.59 10.54Q85.11 13.18 83.19 14.80Q81.27 16.42 78.09 16.42ZM98.82 16.42L98.82 16.42Q96.78 16.42 95.01 15.52Q93.24 14.62 92.16 12.91Q91.08 11.20 91.08 8.74L91.08 8.74L91.08 8.38Q91.08 5.95 92.16 4.22Q93.24 2.50 95.01 1.60Q96.78 0.70 98.82 0.70L98.82 0.70Q100.86 0.70 102.63 1.60Q104.40 2.50 105.48 4.22Q106.56 5.95 106.56 8.38L106.56 8.38L106.56 8.74Q106.56 11.20 105.48 12.91Q104.40 14.62 102.63 15.52Q100.86 16.42 98.82 16.42ZM98.82 12.82L98.82 12.82Q100.47 12.82 101.62 11.75Q102.78 10.69 102.78 8.86L102.78 8.86L102.78 8.26Q102.78 6.40 101.62 5.35Q100.47 4.30 98.82 4.30L98.82 4.30Q97.17 4.30 96.01 5.35Q94.86 6.40 94.86 8.26L94.86 8.26L94.86 8.86Q94.86 10.69 96.01 11.75Q97.17 12.82 98.82 12.82ZM118.17 16.42L118.17 16.42Q116.70 16.42 115.50 15.78Q114.30 15.13 113.59 13.79Q112.89 12.46 112.89 10.42L112.89 10.42L112.89 1.12L116.67 1.12L116.67 9.64Q116.67 11.20 117.43 12.10Q118.20 13 119.67 13L119.67 13Q121.38 13 122.17 11.91Q122.97 10.81 122.97 8.92L122.97 8.92L122.97 1.12L126.75 1.12L126.75 16L122.97 16L122.97 13.84L122.43 13.84Q121.44 16.42 118.17 16.42ZM142.98 16L132.72 16L132.72 12.40L135.78 12.40L135.78 4.72L133.08 4.72L133.08 1.12L139.38 1.12L139.38 3.28L139.92 3.28Q140.34 2.05 141.36 1.38Q142.38 0.70 143.76 0.70L143.76 0.70Q145.98 0.70 147.33 2.10Q148.68 3.49 148.68 6.34L148.68 6.34L148.68 7L144.78 7.36L144.78 6.94Q144.78 5.71 144.15 4.97Q143.52 4.24 142.26 4.24L142.26 4.24Q141.00 4.24 140.28 5.11Q139.56 5.98 139.56 7.60L139.56 7.60L139.56 12.40L142.98 12.40L142.98 16Z" fill="#ffffff"></path></g>
        
      </svg>